<?xml version="1.0" encoding="utf-8"?>
<!-- Generator: Adobe Illustrator 25.4.1, SVG Export Plug-In . SVG Version: 6.00 Build 0)  -->
<svg version="1.1" id="Ebene_1" xmlns="http://www.w3.org/2000/svg" xmlns:xlink="http://www.w3.org/1999/xlink" x="0px" y="0px"
	 viewBox="0 0 138.1 122.6" style="enable-background:new 0 0 138.1 122.6;" xml:space="preserve">
<style type="text/css">
	.st0{fill:#009EE0;}
	.st1{fill:#747577;}
	.st2{fill:#CBD300;}
</style>
<g>
	<path class="st0" d="M41.7,99.9c-1.1,1.8-3.1,2-4.4-0.2L17.5,65.5c-1.7-2.8-1.7-4.3-0.1-7.2l20.3-35.1c0.8-1.5,2.7-1.7,3.9,0.3
		l20.2,34.8c1.3,2.3,1.1,4.8-0.2,7.1"/>
	<path class="st1" d="M98,106.5l20.5-35.4c1.2-2.2,0-4.1-2.8-4.1l-39.1,0c-2.8,0-4.5,0.8-5.8,3.2l-20.2,35.1c-1.2,2-0.2,3.6,2,3.6
		l40.6-0.1C95.5,108.7,97,108.1,98,106.5"/>
	<path class="st2" d="M97.1,17.1l20.5,35.4c1.2,2.2,0,4.1-2.8,4.1l-39.1,0c-2.8,0-4.5-0.8-5.8-3.2L49.7,18.4c-1.2-2-0.2-3.6,2-3.6
		l40.6,0.1C94.6,14.9,96.2,15.5,97.1,17.1"/>
</g>
</svg>
